<?xml version="1.0" encoding="utf-8"?>
<!-- Generator: Adobe Illustrator 24.0.0, SVG Export Plug-In . SVG Version: 6.00 Build 0)  -->
<svg version="1.1" id="Layer_1" xmlns="http://www.w3.org/2000/svg" xmlns:xlink="http://www.w3.org/1999/xlink" x="0px" y="0px"
	 viewBox="0 0 256 256" style="enable-background:new 0 0 256 256;" xml:space="preserve">
<style type="text/css">
	.st0{fill:#FC5D3D;}
	.st1{fill:#AFAFAF;}
	.st2{fill:#72C2E9;}
	.st3{fill:#FFFFFF;}
	.st4{fill:#EFEFEF;}
	.st5{fill:#878787;}
	.st6{fill:#F0C020;}
	.st7{fill:#F8E5B0;}
	.st8{fill:#B34F33;}
	.st9{fill:#FFCBC3;}
	.st10{fill:#FFB69F;}
	.st11{fill:#C5E5FE;}
	.st12{fill:#13BF6D;}
	.st13{fill:#F9E5AF;}
	.st14{fill:#7A7380;}
	.st15{fill:#72C1E8;}
	.st16{fill:#C5E5FF;}
	.st17{fill:#FFCBC2;}
	.st18{fill:#6E6D6C;}
	.st19{fill:#F2E1D7;}
	.st20{fill:#7D7B79;}
	.st21{fill:#D6C0B3;}
	.st22{fill:#76FFBB;}
	.st23{fill:#CF941C;}
	.st24{fill:#7C7B7A;}
	.st25{fill:#FEB69F;}
	.st26{fill:#E8A61E;}
	.st27{fill:#EFF0F0;}
	.st28{fill:#EDC21D;}
	.st29{fill:#4BA5C8;}
	.st30{fill:#E8A61F;}
	.st31{fill:#823A26;}
	.st32{fill:#4C4944;}
	.st33{fill:#4C4945;}
</style>
<g>
	<path class="st1" d="M245.15,156.294c4.33-17.9,4.6-37.61,0-56.6h-18.09c-2.18-7.64-5.22-14.91-9.01-21.72l12.81-12.8
		c-9.971-16.3-23.74-30.07-40.04-40.04l-12.801,12.81c-6.809-3.79-14.08-6.83-21.719-9.01v-18.09c-17.98-4.35-37.69-4.58-56.6,0
		v18.09c-7.64,2.18-14.91,5.22-21.72,9.01l-12.801-12.81c-16.299,9.97-30.069,23.74-40.04,40.04l12.811,12.8
		c-3.79,6.81-6.83,14.08-9.011,21.72h-18.09c-4.369,18.05-4.559,37.76,0,56.6h18.09c2.181,7.64,5.221,14.91,9.011,21.72
		l-12.811,12.8c9.971,16.3,23.741,30.07,40.04,40.04l12.801-12.81c6.81,3.79,14.08,6.83,21.72,9.01v18.09
		c17.979,4.35,37.689,4.58,56.6,0v-18.09c7.639-2.18,14.91-5.22,21.719-9.01l12.801,12.81c16.3-9.97,30.069-23.74,40.04-40.04
		l-12.81-12.8c3.79-6.81,6.83-14.08,9.01-21.72H245.15z M127.99,206.534c-43.37,0-78.5-35.17-78.5-78.55
		c0-43.37,35.13-78.5,78.5-78.5c43.38,0,78.55,35.13,78.55,78.5C206.54,171.364,171.37,206.534,127.99,206.534z"/>
	<path class="st4" d="M128.021,223.186c-20.031,0-39.18-6.134-55.375-17.74c-1.122-0.804-1.38-2.366-0.576-3.488
		c0.805-1.122,2.364-1.38,3.488-0.576c15.342,10.994,33.483,16.805,52.463,16.805c49.812,0,90.19-40.287,90.19-90.152
		c0-24.097-9.39-46.758-26.439-63.808c-0.977-0.976-0.977-2.559,0-3.535c0.977-0.977,2.559-0.977,3.535,0
		c17.994,17.995,27.904,41.911,27.904,67.343C223.211,180.61,180.648,223.186,128.021,223.186z M64.637,199.028
		c-1.34-1.198-2.666-2.452-3.941-3.727c-0.976-0.977-0.976-2.56,0.001-3.536c0.977-0.976,2.56-0.976,3.536,0
		c1.208,1.209,2.465,2.398,3.736,3.533c1.029,0.92,1.118,2.5,0.198,3.53C67.247,199.858,65.668,199.948,64.637,199.028z"/>
	<polygon class="st0" points="128,88.353 89.555,107.353 89.555,152.063 128,171.064 166.149,152.063 166.149,107.353 	"/>
	<path class="st9" d="M126.894,163.706l-29.847-14.734c-0.854-0.421-1.394-1.29-1.394-2.242v-25.509c0-1.381,1.119-2.5,2.5-2.5
		s2.5,1.119,2.5,2.5v23.955l27.341,13.497l15.911-7.934c1.232-0.615,2.737-0.114,3.353,1.122c0.616,1.236,0.114,2.737-1.122,3.353
		l-17.021,8.487C128.42,164.049,127.596,164.053,126.894,163.706z M151.732,149.631c-0.616-1.236-0.114-2.737,1.122-3.353
		l3.58-1.785c1.234-0.616,2.737-0.114,3.353,1.122c0.616,1.236,0.114,2.737-1.122,3.353l-3.58,1.785
		C153.856,151.367,152.351,150.871,151.732,149.631z"/>
	<path d="M10.85,97.194c-1.16,0-2.16,0.79-2.43,1.92c-2.271,9.37-3.42,19.09-3.42,28.89c0,9.8,1.149,19.51,3.42,28.88
		c0.27,1.12,1.27,1.91,2.43,1.91h16.22c1.971,6.46,4.591,12.78,7.79,18.77l-11.489,11.48c-0.82,0.83-0.971,2.09-0.36,3.08
		c10.14,16.58,24.271,30.71,40.86,40.86c0.96,0.59,2.279,0.43,3.069-0.37l11.49-11.48c5.99,3.2,12.311,5.82,18.771,7.79v16.22
		c0,1.16,0.79,2.16,1.92,2.43c18.668,4.523,38.759,4.598,57.76,0c1.13-0.27,1.92-1.27,1.92-2.43v-16.22
		c6.24-1.901,12.615-4.491,18.77-7.79l11.49,11.49c0.79,0.79,2.101,0.95,3.07,0.36c16.58-10.15,30.71-24.28,40.86-40.86
		c0.6-0.99,0.449-2.26-0.37-3.08l-11.48-11.48c3.2-5.99,5.82-12.31,7.79-18.77h16.22c1.16,0,2.16-0.79,2.431-1.92
		c4.502-18.588,4.618-38.693,0-57.76c-0.271-1.13-1.271-1.92-2.431-1.92h-16.22c-1.97-6.46-4.59-12.78-7.79-18.77l11.48-11.49
		c0.819-0.82,0.979-2.08,0.37-3.07c-10.15-16.58-24.28-30.71-40.86-40.86c-0.97-0.59-2.28-0.43-3.07,0.36l-11.49,11.49
		c-5.989-3.2-12.31-5.82-18.77-7.79v-16.22c0-1.16-0.79-2.16-1.92-2.44c-18.74-4.53-39.021-4.53-57.771,0
		c-1.119,0.28-1.909,1.28-1.909,2.44v16.22c-6.46,1.97-12.78,4.59-18.771,7.79l-11.49-11.49c-0.79-0.79-2.1-0.95-3.069-0.36
		c-5.58,3.42-10.94,7.31-15.91,11.58c-1.05,0.9-1.17,2.48-0.271,3.53c0.86,1,2.521,1.13,3.521,0.27c4.28-3.67,8.85-7.06,13.6-10.08
		l11.4,11.4c0.77,0.78,2.03,0.95,2.99,0.42c6.71-3.74,13.84-6.69,21.189-8.79c1.07-0.3,1.811-1.29,1.811-2.4v-16.11
		c16.77-3.76,34.81-3.76,51.6,0v16.11c0,1.11,0.74,2.1,1.81,2.4c7.341,2.09,14.471,5.05,21.19,8.79c0.96,0.53,2.21,0.36,2.98-0.42
		l11.409-11.4c14.601,9.28,27.221,21.9,36.49,36.5l-11.399,11.4c-0.78,0.79-0.95,2.02-0.41,2.99c3.739,6.72,6.699,13.85,8.79,21.19
		c0.3,1.07,1.29,1.81,2.399,1.81h16.11c3.779,16.887,3.768,34.764,0,51.6h-16.11c-1.109,0-2.1,0.74-2.399,1.81
		c-2.101,7.35-5.051,14.48-8.79,21.19c-0.54,0.97-0.37,2.2,0.41,2.99l11.399,11.39c-9.27,14.61-21.89,27.23-36.49,36.51
		l-11.409-11.4c-0.771-0.78-2.021-0.96-2.98-0.42c-6.584,3.668-13.715,6.66-21.19,8.79c-1.069,0.3-1.81,1.29-1.81,2.4v16.11
		c-16.81,3.76-34.83,3.75-51.6,0v-16.11c0-1.11-0.74-2.1-1.811-2.4c-7.34-2.09-14.47-5.05-21.189-8.79
		c-0.96-0.54-2.221-0.36-2.99,0.42l-11.4,11.4c-14.6-9.28-27.22-21.9-36.5-36.51l11.4-11.39c0.79-0.79,0.96-2.02,0.42-2.99
		c-3.74-6.71-6.69-13.84-8.79-21.19c-0.31-1.07-1.29-1.81-2.4-1.81H12.83c-1.88-8.39-2.83-17.06-2.83-25.79s0.95-17.41,2.83-25.81
		h16.109c1.11,0,2.091-0.74,2.4-1.81c2.1-7.35,5.05-14.48,8.79-21.19c0.54-0.97,0.37-2.2-0.42-2.99l-11.4-11.4
		c2.76-4.33,5.83-8.54,9.15-12.51c0.895-1.062,0.728-2.645-0.311-3.52c-1.02-0.85-2.67-0.7-3.52,0.31
		c-3.9,4.66-7.47,9.63-10.62,14.78c-0.61,0.99-0.46,2.25,0.36,3.07l11.489,11.49c-3.199,6-5.819,12.31-7.79,18.77H10.85z"/>
	<path d="M44.05,45.054c0.97-0.98,0.96-2.57-0.02-3.53c-0.95-0.94-2.601-0.93-3.54,0.02c-0.917,0.916-1.013,2.497,0.02,3.53
		C41.539,46.08,43.129,45.995,44.05,45.054z"/>
	<path d="M186.649,183.914c14.44-15.14,22.391-35,22.391-55.93c0-44.853-36.379-81-81.05-81c-44.779,0-81,36.265-81,81
		c0,44.73,36.204,81.05,81,81.05l0.02-0.05v0.05c15.12,0,29.88-4.2,42.68-12.15c1.17-0.72,1.53-2.27,0.801-3.44
		c-0.732-1.177-2.247-1.525-3.44-0.81c0,0.01-0.01,0.01-0.01,0.01c-12.01,7.45-25.851,11.39-40.05,11.39
		c-42.023,0-76-34.011-76-76.05c0-41.935,33.884-75.979,76-76c42.019,0.021,76.05,33.952,76.05,76c0,19.64-7.471,38.27-21.01,52.48
		c-0.95,0.99-0.91,2.58,0.079,3.53C184.08,184.924,185.729,184.883,186.649,183.914z"/>
	<path d="M175.93,187.024c-1.072,0.867-1.256,2.423-0.37,3.52c0.857,1.052,2.417,1.243,3.521,0.36
		c1.071-0.865,1.236-2.446,0.359-3.51C178.6,186.364,176.96,186.184,175.93,187.024z"/>
	<circle cx="166.149" cy="125.164" r="2.5"/>
	<path d="M183.359,160.604c0.61-1.24,0.101-2.74-1.13-3.35l-13.58-6.74v-15.35c0-1.38-1.119-2.5-2.5-2.5c-1.38,0-2.5,1.12-2.5,2.5
		v15.35l-33.149,16.51v-39.122l33.149-16.511v3.773c0,1.38,1.12,2.5,2.5,2.5c1.381,0,2.5-1.12,2.5-2.5v-7.81
		c0-0.929-0.544-1.817-1.39-2.24L130.5,86.807V71.607c0-1.381-1.119-2.5-2.5-2.5s-2.5,1.119-2.5,2.5v15.194
		c-0.465,0.23-36.621,18.098-37.081,18.334c-0.872,0.445-1.369,1.338-1.369,2.219v43.154l-13.28,6.586
		c-1.229,0.62-1.739,2.12-1.13,3.35c0.648,1.298,2.196,1.722,3.351,1.13l13.561-6.726l37.338,18.456c0.746,0.361,1.613,0.304,2.22,0
		l37.038-18.446l13.863,6.876C181.287,162.355,182.746,161.818,183.359,160.604z M92.05,111.375l33.45,16.532v39.136l-33.45-16.529
		V111.375z M127.99,91.144l32.549,16.211l-32.543,16.209l-32.804-16.212L127.99,91.144z"/>
</g>
</svg>
